<svg xmlns="http://www.w3.org/2000/svg" viewBox="0 0 4107.69 466.11" width="100%" height="auto">
  <title>Help us keep Wikipedia free</title>
  <g id="helpuskeepwikipediafree-letters">
    <path mask="h_help-mask" id="h_help-letter" d="M200.9,84.23l5.46-1.56L213,87.35l.78,3.12L215.33,103l-5.46,42.51-1.56,7.41-4.68,20.28-3.51,14-2,3.9.39.39L213,195l6.24,2.34,5.07,1.56-.78,3.12-3.12.39L218.84,204,213,206.3l-3.12,3.12H204.8l-9.75,1.17-4.68,4.29v3.9l-3.12,3.12-2.34,9-4.68,9.36-1.95,9.36-1.95,12.48L174,268.31l-.77,5.46v7.41l-2.35,4.68.78,3.51-1.17,9h.39V303l-1.17,2.73v6.63l-1.56.78-.78,3.12.78,1.17-.39,1.95h-1.17l-3.51,3.12-1.56-.78-.77,2.73-2-1.17-1.17.39v1.17l-2,.78-.39,1.56-1.55,1.95-4.69.78-2.73-2.73L144,322.91l-2-9-2.73-20.28V276.11l3.12-30,4.68-29.25L138.51,218h-9.75l-18.34,4.68-10.14,1.17L96.78,225l-2.73,11.7-1.56,2.73-.79,4.68-1.17,2.73-3.9,7.8-.77,5.07-2.35,5.46L82,271.82l-5.46,13.65L71,297.17l-4.67,10.14-.79,8.19L64,317.45l-.38,2.73-2,3.12L60.51,328l-1.17,1.56-.4.78-8.18,7L50,332.66l-.78-9.75-1.56-6.24-.39-4.29V294.05l2.35-27.69-.4-3.51,1.57-5.07,3.12-24.57,9.75-51.87,5.84-18.72,4.68-10.53.4-4.29,5.84-17.94,3.91-7.41,5.06-11.7,5.07-10.92L96,98.27l1.56-3.51h1.56l1.17-1.17h2l1.16-.78,5.07-.39,7,2.73v.78l2.34.78,4.29,16-2,14.82.78,1.17L119.39,131,118.61,142l-1.56,11.7-5.85,19.89-2.34,9-2,1.56-.38,5.46-2,3.51h19.11l16-3.51h5.85l8.2-1.17,4.67-19.5,8.19-24.57.78-3.9,1.56-1.56-.39-.78L174,120.89l10.14-23.4L188,86.57h1.17l.78-2.34,2.34-.39L197,82.67Z" transform="translate(-16.2 -5.44)"/>
    <path mask="e_help-mask" id="e_help-letter" d="M311.66,250c-19.89,0-32.37-2.34-38.22-7-9.75,16-14.82,28.47-14.82,37,0,2.34,1.95,5.85,5.46,10.92,7,9.75,7.41,9.75,21.45,11.31,2,1.17,6.24,5.85,17.55,5.85,8.19,0,20.67-3.51,36.66-10.92,17.55-8.19,32-20.67,34.32-20.67a5.64,5.64,0,0,1,2.73.78,56.16,56.16,0,0,1-3.51,13.26c-1.95,1.95-33.54,44.07-79.56,44.07-17.16,0-39.78-23.79-51.09-37.83-12.87-16.38-16.38-43.29-16.38-53.43,1.56-3.12,3.12-9,5.07-17.16,0-4.29,4.68-.78,8.19-15.6,7-4.29,2-8.58,14.43-18.72l7-5.85A231.41,231.41,0,0,1,280.07,165l12.09-6.63a12.15,12.15,0,0,0,7.41-9h3.12c1.56,0,6.63,5.46,8.58,5.85,17.55,2.73,26.91,4.29,27.3,4.29,17.16,4.29,41.34,23.4,41.34,37.83C379.91,244.91,317.51,250,311.66,250ZM323,186.8l-11.31,7c-19.89,11.31-25.74,24.57-37.83,40.56q7.6,2.34,8.19,2.34c2.73,0,9-3.12,19.5-9.75,25.74-16.38,25.74-26.52,28.47-35.49Q325.31,186.8,323,186.8Z" transform="translate(-16.2 -5.44)"/>
    <path mask="" id="l_help-letter" d="M555,69.8a87.36,87.36,0,0,1-2.73,21.45v2q0,4.68-2.34,14c-28.08,50.31-53.82,87-76.83,110.37-7.41,15.21-25.35,24.18-27.69,37-4.29,6.24-15.6,8.19-15.6,23.79,0,3.12.39,6.63,1.56,9l1.56,3.9c6.63,7.8,20.67,12.87,33.93,12.87,8.58,0,16.77-1.95,23-6.63,3.12.39,2.73.39,2.73,1.95,4.68-1.95,9-3.12,10.53-3.12q10.53,0,12.87,11.7a7.6,7.6,0,0,1-.39,3.12l-.39,1.56c-3.51-2.73-7.41-3.9-12.48-3.9-2.34,0-10.92,1.95-26.13,5.85-12.09,6.24-23,7-34.32,7.41l-7,.39-2.73-.78c-11.31-1.17-25.74-5.46-32.37-20.28-2.34-5.46-2.73-11.7-4.29-12.09-3.9,0-11.7,5.07-13.65,5.07h-.39c-6.63,2.73-19.11,10.14-23,11.7h-5.46c-4.29,0-7.41-1.95-8.58-5.46,6.24-3.51,16.38-10.14,30.81-17.16v.39c1.95-2.73,7.41-4.29,14.82-10.53,4.29-3.9,6.63-10.14,9.75-13.26l2.73-15.6,1.56-4.68c.39-2,1.17-3.9,1.95-6.63,1.17-4.29.39-8.19,7.8-24.57l.39-2.73a86.73,86.73,0,0,0,4.29-9.75l4.29-11.31,2.34-3.12a29.44,29.44,0,0,1,7.8-16c2-7.41,7-17.94,14-28.86l1.56-4.68,5.07-9.75c.78,0,1.17-.39,1.95-1.17l2-5.07L478.58,92c1.17-3.12,3.51-5.85,7.41-9l3.12.39a250.76,250.76,0,0,1,17.55-21.06c10.14-3.51,18.72-5.07,26.13-5.07,7.8,0,18.33,1.17,21.45,3.51A64,64,0,0,1,555,69.8Zm-24.57,33.93c-1.17-8.19-3.51-12.48-7-12.48-1.17,0-23.4,25.35-26.52,30-5.85,9-29.25,50.7-30,54.21-.39,2.34-24.18,56.55-24.18,56.94,5.46-1.56,41.73-44.07,43.68-49.92,9.75-.78,14.43-14,26.52-46C525.77,117.38,530.45,106.07,530.45,103.73Z" transform="translate(-16.2 -5.44)"/>
    <path id="p_help-letter" d="M674,222.68c-.39,4.68-2.73,17.16-6.63,32-4.68,7.41-12.87,29.25-28.86,39.78v-.39c0-.39-.78-1.17-2-2.34a5.42,5.42,0,0,0-1.95,3.9c-.39-.39-2-5.46-3.12-5.46-3.9,0-15.21,8.19-33.54,24.18-7,1.56-12.87,6.63-25.74,14.43-3.51,0-9,.78-16,2.34.39,0-8.19,12.09-12.87,33.54-.39,3.12-4.29,17.16-14,37.44a14.55,14.55,0,0,1,.78,4.68c0,.78-.39,1.56-.39,2.34v-1.17c0-2.34-.78-5.85-2.73-11.31-1.17,0-2,5.07-2.73,15.21C511.73,433.67,514.07,461,497.3,461c-5.07,0-7.41-3.9-7.41-11.7,0-2.73,1.95-11.31,3.12-14,2.73-7.8,3.12-23.4,6.63-43.29a36,36,0,0,1-.39-7.41c9.75-41.34,24.57-87.75,43.68-139.23,3.9-6.24,5.85-11.7,10.14-26.52,1.95-1.95,7.8-10.53,7.8-21.45,0-.39-.39-.39-1.56-.39-.39-.39-2.34,1.56-7,5.07-18.33,13.65-33.15,18.33-33.54,18.33-3.51,0-5.07-5.07-5.07-15.21,0-18.72,11.31-24.57,20.67-33.93,21.84-7.41,33.54-11.31,35.1-11.31,1.17,0,1.95.78,3.12.78,1.56,0,8.58-5.46,10.53-5.46,1.56,0,2.34,1.95,3.9,1.95s4.29-1.17,5.46-1.17c6.63,0,42.12,1.56,60.45,18.33,13.65,0,22.62,17.16,24.18,30,0,1.17,2.34,3.9,2.34,5.46S674.36,221.12,674,222.68Zm-36.66-33.15c-1.56,0-1.17,1.17-2.73,1.17-1.17,0-18.33-5.46-26.13-5.46a12.68,12.68,0,0,0-9.36,3.9C594,211,589.34,234,580.37,265.19c-4.68,9.75-10.53,23.79-17.55,46l1.95,2.34c4.29-3.12,7.41-3.9,16.77-8.58,5.46-5.46,8.19-9,8.19-10.14a5.54,5.54,0,0,0-.78-2.34l-1.17-.78c5.07-4.29,12.48-10.53,22.62-18.72,2.34-.78,4.68-.39,6.63-4.29-3.12-1.56-4.68-3.12-4.68-4.29A81.14,81.14,0,0,0,628,254.27a3.92,3.92,0,0,1-2.34-3.9c0-2.34,6.63-2,11.31-22.23,3.12-5.46,11.7-21.84,11.7-32A118.44,118.44,0,0,0,637.31,189.53Zm.39,62.4h.39c.39,0,2.73-1.17,3.9-1.17C641.21,250.76,637.7,251.54,637.7,251.93Z" transform="translate(-16.2 -5.44)"/>
    <path id="u_us-letter" d="M937.6,296.78c-3.9,0-10.92-1.17-20.67-3.9-3.9-.78-11.7-16-14-16q-1.75,0-3.51,2.34c-12.48,23.4-22.62,38.61-30,45.24-.78.39-26.52,10.14-27.3,10.14q-5.26,0-18.72-4.68c-4.68-9-25.74-26.52-25.74-32.76,0-10.92-1.56-30,6.63-51.48,5.46-4.29,8.19-7.41,14.43-27.69,3.51-1.56,2.73-9.36,16-28.47,0-3.12,12.09-34.32,17.55-34.32,5.07,0,10.14,10.92,10.14,17.16,0,1.95-3.51,10.53-3.51,12.48,0,1.17-.39,5.07-.78,12.09a22.3,22.3,0,0,1,2.73,9.36c-3.12,6.24-7,16-11.7,28.86a23,23,0,0,0-3.12,1.56,11.39,11.39,0,0,1,.78,3.51c0,4.68-17.16,32.76-17.16,53.43,0,1.56,9,4.68,9.36,5.85h2.34c2-2.34,5.85-4.29,11.7-7.41,14.82-8.58,17.55-17.55,22.62-29.25l27.69-65.13c1.56,0,5.07-1.17,6.63-1.17s14,10.92,17.55,10.92a5,5,0,0,0,3.12-.78c1.56,1.56,5.07,12.48,5.07,15.21,0,2.34-1.17,10.14-3.51,23l-3.9,22.23c0,4.29,2,6.24,6.24,6.24,0-.39,5.46-2.34,17.16-6.24a54.37,54.37,0,0,1,2,12.48C953.59,277.28,948.91,296.78,937.6,296.78Z" transform="translate(-16.2 -5.44)"/>
    <path id="s_us-letter" d="M1081.9,188.36c-10.14,7.8-43.68,28.08-43.68,55.38q0,1.17,5.85,31.59l5.85,31.59q0,3.51-5.85,18.72c-8.58,22.62-11.31,18.33-14,18.33-10.53,0-21.84.39-38.61-4.29-5.85-9.75-23.4-7.41-32-33.93-1.17-3.51-3.9-5.07-8.58-5.07-4.29,0-31.2,26.13-43.68,28.47a115,115,0,0,1,7-17.55c6.63-10.53,47.58-30.81,50.7-32,19.5-15.21,40.17-28.86,49.92-46.41,0-5.07.39-12.87.78-24.18,0-2.73,4.29-14.43,12.87-34.32,4.68-10.92,7.41-20.28,7.8-28.08,4.68-3.51,11.7-9.36,21.06-17.16-1.17-1.17,27.69,22.23,37.44,22.23h2.34v5.07Q1097.11,173.74,1081.9,188.36Zm-56.55,97.89q0-9.94-10.53-36.27l-52.65,40.56c3.9,2.73,7,3.9,9.75,3.9,2,0,7.41-2.34,9.36-2.34,1.56,0,6.24,5.46,8.19,5.46,1.17,0,2.34-1.17,3.9-1.17,3.51,0,23.4,7.41,27.69,7.41,1.56,0,3.9-1.17,4.29-1.17Z" transform="translate(-16.2 -5.44)"/>
    <path id="k_keep-letter" d="M1309.27,83.84l5.07,5.07.78,12.09-3.9,11.31-3.9,6.63-3.51,9.75L1298,139.22l-9.36,22.62-4.29,8.58-7,17.94-3.12,7.8,18.72-9.75,17.16-5.85h7.41l10.14,5.85,2,5.46-1.17,10.92-3.9,5.46-.78,3.12-9.75,7-17.16,12.09-9.36,4.68-7.8,5.85-19.89,10.53,63.57,37.83L1344,303.8l2,2.34,6.24,4.68,20.67,14.82,5.07,7,.39,3.12-2.34.78,2,2.34v2.73l-5.07-1.95-3.12.39-4.29-2.34-5.85-1.17-17.94-7.8-62.4-30-32.76-20.67-1.17,3.12-9,26.52-.39,5.07-1.17,1.56v8.19l-2,9-1.56.78v3.51l-8.58,2.73V342l-5.07,2.73-2.34-1.17-5.85-.78-1.17-3.9-5.07-5.07-.78-5.46,1.95-5.07,4.29-20.67,1.56-3.12,1.17-6.24,3.9-14,2.34-10.14,6.24-17.94,2-10.92,4.29-9.75,1.17-5.07,3.51-9,6.63-19.5,1.17-1.17,19.11-44.07,16.38-30,17.55-26.52,6.24-7,5.46-4.29Z" transform="translate(-16.2 -5.44)"/>
    <path id="e_keep-letter" d="M1450.05,250c-19.89,0-32.37-2.34-38.22-7-9.75,16-14.82,28.47-14.82,37,0,2.34,2,5.85,5.46,10.92,7,9.75,7.41,9.75,21.45,11.31,1.95,1.17,6.24,5.85,17.55,5.85,8.19,0,20.67-3.51,36.66-10.92,17.55-8.19,32-20.67,34.32-20.67a5.64,5.64,0,0,1,2.73.78,56.16,56.16,0,0,1-3.51,13.26c-2,1.95-33.54,44.07-79.56,44.07-17.16,0-39.78-23.79-51.09-37.83-12.87-16.38-16.38-43.29-16.38-53.43,1.56-3.12,3.12-9,5.07-17.16,0-4.29,4.68-.78,8.19-15.6,7-4.29,1.95-8.58,14.43-18.72l7-5.85A231.41,231.41,0,0,1,1418.46,165l12.09-6.63a12.15,12.15,0,0,0,7.41-9h3.12c1.56,0,6.63,5.46,8.58,5.85,17.55,2.73,26.91,4.29,27.3,4.29,17.16,4.29,41.34,23.4,41.34,37.83C1518.3,244.91,1455.9,250,1450.05,250Zm11.31-63.18-11.31,7c-19.89,11.31-25.74,24.57-37.83,40.56q7.6,2.34,8.19,2.34c2.73,0,9-3.12,19.5-9.75,25.74-16.38,25.74-26.52,28.47-35.49Q1463.7,186.8,1461.36,186.8Z" transform="translate(-16.2 -5.44)"/>
    <path id="e_keep-letter-2" data-name="e_keep-letter" d="M1615,250c-19.89,0-32.37-2.34-38.22-7-9.75,16-14.82,28.47-14.82,37,0,2.34,2,5.85,5.46,10.92,7,9.75,7.41,9.75,21.45,11.31,1.95,1.17,6.24,5.85,17.55,5.85,8.19,0,20.67-3.51,36.66-10.92,17.55-8.19,32-20.67,34.32-20.67a5.64,5.64,0,0,1,2.73.78,56.16,56.16,0,0,1-3.51,13.26c-2,1.95-33.54,44.07-79.56,44.07-17.16,0-39.78-23.79-51.09-37.83-12.87-16.38-16.38-43.29-16.38-53.43,1.56-3.12,3.12-9,5.07-17.16,0-4.29,4.68-.78,8.19-15.6,7-4.29,2-8.58,14.43-18.72l7-5.85A231.41,231.41,0,0,1,1583.43,165l12.09-6.63a12.15,12.15,0,0,0,7.41-9h3.12c1.56,0,6.63,5.46,8.58,5.85,17.55,2.73,26.91,4.29,27.3,4.29,17.16,4.29,41.34,23.4,41.34,37.83C1683.27,244.91,1620.87,250,1615,250Zm11.31-63.18-11.31,7c-19.89,11.31-25.74,24.57-37.83,40.56q7.61,2.34,8.19,2.34c2.73,0,9-3.12,19.5-9.75,25.74-16.38,25.74-26.52,28.47-35.49Q1628.67,186.8,1626.33,186.8Z" transform="translate(-16.2 -5.44)"/>
    <path id="p_keep-letter" d="M1853.3,222.68c-.39,4.68-2.73,17.16-6.63,32-4.68,7.41-12.87,29.25-28.86,39.78v-.39c0-.39-.78-1.17-2-2.34a5.42,5.42,0,0,0-1.95,3.9c-.39-.39-2-5.46-3.12-5.46-3.9,0-15.21,8.19-33.54,24.18-7,1.56-12.87,6.63-25.74,14.43-3.51,0-9,.78-16,2.34.39,0-8.19,12.09-12.87,33.54-.39,3.12-4.29,17.16-14,37.44a14.55,14.55,0,0,1,.78,4.68c0,.78-.39,1.56-.39,2.34v-1.17c0-2.34-.78-5.85-2.73-11.31-1.17,0-2,5.07-2.73,15.21-12.48,21.84-10.14,49.14-26.91,49.14-5.07,0-7.41-3.9-7.41-11.7,0-2.73,2-11.31,3.12-14,2.73-7.8,3.12-23.4,6.63-43.29a36,36,0,0,1-.39-7.41c9.75-41.34,24.57-87.75,43.68-139.23,3.9-6.24,5.85-11.7,10.14-26.52,1.95-1.95,7.8-10.53,7.8-21.45,0-.39-.39-.39-1.56-.39-.39-.39-2.34,1.56-7,5.07-18.33,13.65-33.15,18.33-33.54,18.33-3.51,0-5.07-5.07-5.07-15.21,0-18.72,11.31-24.57,20.67-33.93,21.84-7.41,33.54-11.31,35.1-11.31,1.17,0,2,.78,3.12.78,1.56,0,8.58-5.46,10.53-5.46,1.56,0,2.34,1.95,3.9,1.95s4.29-1.17,5.46-1.17c6.63,0,42.12,1.56,60.45,18.33,13.65,0,22.62,17.16,24.18,30,0,1.17,2.34,3.9,2.34,5.46S1853.69,221.12,1853.3,222.68Zm-36.66-33.15c-1.56,0-1.17,1.17-2.73,1.17-1.17,0-18.33-5.46-26.13-5.46a12.68,12.68,0,0,0-9.36,3.9c-5.07,21.84-9.75,44.85-18.72,76.05-4.68,9.75-10.53,23.79-17.55,46l1.95,2.34c4.29-3.12,7.41-3.9,16.77-8.58,5.46-5.46,8.19-9,8.19-10.14a5.54,5.54,0,0,0-.78-2.34l-1.17-.78c5.07-4.29,12.48-10.53,22.62-18.72,2.34-.78,4.68-.39,6.63-4.29-3.12-1.56-4.68-3.12-4.68-4.29a81.14,81.14,0,0,0,15.6-10.14,3.92,3.92,0,0,1-2.34-3.9c0-2.34,6.63-2,11.31-22.23,3.12-5.46,11.7-21.84,11.7-32A118.44,118.44,0,0,0,1816.64,189.53Zm.39,62.4h.39c.39,0,2.73-1.17,3.9-1.17C1820.54,250.76,1817,251.54,1817,251.93Z" transform="translate(-16.2 -5.44)"/>
    <path id="w_wikipedia-letter" d="M2253.83,68.63l-.78,1.56h-1.17l.39,2-2.34,2.34v2.34l-3.12,3.51-.78,3.51-3.12,7.8-4.29,17.16-1.95,2.34-7,17.94-4.68,6.24-2.73,10.53L2208.59,181l-3.51,4.68-2.73,7-3.9,12.87-5.07,9.36.39,1.56-5.07,14.82-4.68,5.07-3.9,6.24-2.34,6.63-5.46,9.75-12.09,27.3-7,10.92-4.29,9.75-2.34.78-.39,2.73-2,1.95-2.34,5.07-4.29,3.51,1.56,2-3.12,3.51h-2.73v1.17l-5.85,2H2124l-1.17-1.56-5.46-1.56-2.34-4.29-1.56-9.75-6.24-24.57-3.9-37.44,1.95-21.45V189.53l5.85-53-1.56-6.24-4.68,7h-1.95l-2.73,5.46-5.46,6.63-7.8,14.82-5.46,14-3.9,10.53-7,12.09-1.17,9-2,1.56-.78,9-2.34,3.12-5.85,26.91-3.12,8.58-1.17,7.41,1.17,1.95-2.34,3.51.78,5.85v13.65l-2,8.58-2.34,4.68v8.58l-2.73,5.07h-4.29l-5.07,2.73-4.29,4.68-7.8.78-2-1.17-11.7-7-.39-7-7.41-21.84-9.36-46.8-.39-7,1.17-6.63-2-7V193l1.56-15.6,2.34-11.7,3.9-28.47,1.17-3.12,2-7.41,5.07-16.38,3.51-3.51,7-.78,5.85,1.56v1.17l5.07,1.56V115l2,22.62v9l2,9,5.46,43.68v31.2l3.9-17.55,5.46-13.26,10.92-20.28,3.9-5.85,5.85-13.26,8.19-12.09,8.58-15.21,6.63-6.24.39-1.17,8.19-8.19,6.63-2.34h12.48l9,2.34,4.68,12.87,1.17,7.41v5.85L2133.32,181v16.77l-.78,12.09L2129,244.13l1.17,2-1.95,2.34,1.56,3.12-2.34,23.79,1.56,1.56-.78,4.29v11.31l3.9-5.85,14-29.25L2163,217.22l5.07-9.75,5.07-6.63,2.73-9.36,5.85-9.36.78-3.9L2186,172l5.85-13.26,1.95-1.56L2219.51,115V108.8l13.65-19.11h1.17l1.56-4.68,2.73-3.51V80.33l10.53-11.7,2.34.39v1.17l1.56-3.12Z" transform="translate(-16.2 -5.44)"/>
    <path id="i1_wikipedia-letter" d="M2294.39,228.14c0,15.6-5.46,18.33-18.33,38.61-6.63,26.13-1.56,17.94-29.64,72.15-11.31,0-21.06-23-23.4-38.61-.78-4.68-6.24-3.51-6.24-14.82,0-9.75,6.63-7.8,10.14-23.4,5.07-16.77,4.29-16,22.62-34.32,1.95-1.95,3.12-4.68,3.51-8.58,7.8-5.07,12.87-7.8,15.6-7.8,1.17,0,6.63,2.34,25.74,13.26Zm41.73-80.34c-9,8.19-15.21,12.48-18.72,12.48-7,0-17.94-27.69-17.94-37.83,0-7.41,4.29-26.13,9.36-26.13,4.68,0,26.52,22.62,27.3,26.52.39,2.73,5.46,10.92,5.46,13.65C2341.58,138.05,2336.51,145.85,2336.12,147.8Z" transform="translate(-16.2 -5.44)"/>
    <path id="k_wikipedia-letter" d="M2426.59,83.84l5.08,5.07.78,12.09-3.9,11.31-3.9,6.63-3.52,9.75-5.84,10.53-9.37,22.62-4.29,8.58-7,17.94-3.12,7.8,18.72-9.75,17.16-5.85h7.41l10.13,5.85,2,5.46-1.17,10.92-3.91,5.46-.77,3.12-9.75,7-17.16,12.09-9.36,4.68L2397,241l-19.89,10.53,63.56,37.83,20.67,14.43,2,2.34,6.24,4.68,20.67,14.82,5.07,7,.39,3.12-2.34.78,1.95,2.34v2.73l-5.07-1.95-3.12.39-4.29-2.34-5.85-1.17-17.94-7.8-62.4-30-32.77-20.67-1.17,3.12-9,26.52-.39,5.07-1.17,1.56v8.19l-2,9-1.57.78v3.51l-8.57,2.73V342l-5.07,2.73-2.34-1.17-5.85-.78-1.17-3.9-5.07-5.07-.78-5.46,2-5.07,4.29-20.67,1.56-3.12,1.17-6.24,3.9-14,2.34-10.14,6.24-17.94,1.94-10.92,4.29-9.75,1.17-5.07,3.52-9,6.63-19.5,1.17-1.17L2379,151.7l16.38-30L2413,95.15l6.24-7,5.46-4.29Z" transform="translate(-16.2 -5.44)"/>
    <path id="i2_wikipedia-letter" d="M2556.85,228.14c0,15.6-5.46,18.33-18.33,38.61-6.63,26.13-1.56,17.94-29.64,72.15-11.31,0-21.06-23-23.4-38.61-.78-4.68-6.24-3.51-6.24-14.82,0-9.75,6.63-7.8,10.14-23.4,5.07-16.77,4.29-16,22.62-34.32,1.95-1.95,3.12-4.68,3.51-8.58,7.8-5.07,12.87-7.8,15.6-7.8,1.17,0,6.63,2.34,25.74,13.26Zm41.73-80.34c-9,8.19-15.21,12.48-18.72,12.48-7,0-17.94-27.69-17.94-37.83,0-7.41,4.29-26.13,9.36-26.13,4.68,0,26.52,22.62,27.3,26.52.39,2.73,5.46,10.92,5.46,13.65C2604,138.05,2599,145.85,2598.58,147.8Z" transform="translate(-16.2 -5.44)"/>
    <path id="p_wikipedia-letter" d="M2739.76,222.68c-.39,4.68-2.73,17.16-6.63,32-4.68,7.41-12.87,29.25-28.86,39.78v-.39c0-.39-.78-1.17-1.95-2.34a5.42,5.42,0,0,0-2,3.9c-.39-.39-1.95-5.46-3.12-5.46-3.9,0-15.21,8.19-33.54,24.18-7,1.56-12.87,6.63-25.74,14.43-3.51,0-9,.78-16,2.34.39,0-8.19,12.09-12.87,33.54-.39,3.12-4.29,17.16-14,37.44a14.55,14.55,0,0,1,.78,4.68c0,.78-.39,1.56-.39,2.34v-1.17c0-2.34-.78-5.85-2.73-11.31-1.17,0-1.95,5.07-2.73,15.21-12.48,21.84-10.14,49.14-26.91,49.14-5.07,0-7.41-3.9-7.41-11.7,0-2.73,2-11.31,3.12-14,2.73-7.8,3.12-23.4,6.63-43.29a36,36,0,0,1-.39-7.41c9.75-41.34,24.57-87.75,43.68-139.23,3.9-6.24,5.85-11.7,10.14-26.52,1.95-1.95,7.8-10.53,7.8-21.45,0-.39-.39-.39-1.56-.39-.39-.39-2.34,1.56-7,5.07-18.33,13.65-33.15,18.33-33.54,18.33-3.51,0-5.07-5.07-5.07-15.21,0-18.72,11.31-24.57,20.67-33.93,21.84-7.41,33.54-11.31,35.1-11.31,1.17,0,2,.78,3.12.78,1.56,0,8.58-5.46,10.53-5.46,1.56,0,2.34,1.95,3.9,1.95s4.29-1.17,5.46-1.17c6.63,0,42.12,1.56,60.45,18.33,13.65,0,22.62,17.16,24.18,30,0,1.17,2.34,3.9,2.34,5.46S2740.15,221.12,2739.76,222.68Zm-36.66-33.15c-1.56,0-1.17,1.17-2.73,1.17-1.17,0-18.33-5.46-26.13-5.46a12.68,12.68,0,0,0-9.36,3.9c-5.07,21.84-9.75,44.85-18.72,76.05-4.68,9.75-10.53,23.79-17.55,46l1.95,2.34c4.29-3.12,7.41-3.9,16.77-8.58,5.46-5.46,8.19-9,8.19-10.14a5.54,5.54,0,0,0-.78-2.34l-1.17-.78c5.07-4.29,12.48-10.53,22.62-18.72,2.34-.78,4.68-.39,6.63-4.29-3.12-1.56-4.68-3.12-4.68-4.29a81.14,81.14,0,0,0,15.6-10.14,3.92,3.92,0,0,1-2.34-3.9c0-2.34,6.63-2,11.31-22.23,3.12-5.46,11.7-21.84,11.7-32A118.44,118.44,0,0,0,2703.1,189.53Zm.39,62.4h.39c.39,0,2.73-1.17,3.9-1.17C2707,250.76,2703.49,251.54,2703.49,251.93Z" transform="translate(-16.2 -5.44)"/>
    <path id="e_wikipedia-letter" d="M2837.26,250c-19.89,0-32.37-2.34-38.22-7-9.75,16-14.82,28.47-14.82,37,0,2.34,2,5.85,5.46,10.92,7,9.75,7.41,9.75,21.45,11.31,1.95,1.17,6.24,5.85,17.55,5.85,8.19,0,20.67-3.51,36.66-10.92,17.55-8.19,32-20.67,34.32-20.67a5.64,5.64,0,0,1,2.73.78,56.16,56.16,0,0,1-3.51,13.26c-2,1.95-33.54,44.07-79.56,44.07-17.16,0-39.78-23.79-51.09-37.83-12.87-16.38-16.38-43.29-16.38-53.43,1.56-3.12,3.12-9,5.07-17.16,0-4.29,4.68-.78,8.19-15.6,7-4.29,1.95-8.58,14.43-18.72l7-5.85A231.41,231.41,0,0,1,2805.67,165l12.09-6.63a12.15,12.15,0,0,0,7.41-9h3.12c1.56,0,6.63,5.46,8.58,5.85,17.55,2.73,26.91,4.29,27.3,4.29,17.16,4.29,41.34,23.4,41.34,37.83C2905.51,244.91,2843.11,250,2837.26,250Zm11.31-63.18-11.31,7c-19.89,11.31-25.74,24.57-37.83,40.56q7.61,2.34,8.19,2.34c2.73,0,9-3.12,19.5-9.75,25.74-16.38,25.74-26.52,28.47-35.49Q2850.91,186.8,2848.57,186.8Z" transform="translate(-16.2 -5.44)"/>
    <path id="d_wikipedia-letter" d="M3108.69,182.9c-25,53.43-26.13,46.8-39.78,71.76-1.95,14-7.8,27.3-7.8,28.86,0,13.26,6.63,19.89,19.5,19.89,1.95,0,6.63-.78,8.58-.78,2.73,0,4.68.39,6.24,1.56a10.54,10.54,0,0,0,6.63-2.73,51.25,51.25,0,0,0,1.56,10.53,22.37,22.37,0,0,1-2.73-1.56,6.22,6.22,0,0,1-1.17,3.12c-26.52,10.14-24.57,7-33.54,7-12.87,0-12.87-8.58-28.86-41.73a2.92,2.92,0,0,0-2-.39c-1.17,0-2.34.39-3.9,1.95-16.77,15.21-35.49,34.71-62,49.14-2.73,1.17-1.95-2.34-10.14,7.8h-2c-3.51,0-21.84,1.17-27.3-11.7-2.73-3.51-9.75-11.7-9.75-20.28,0-11.31,3.12-19.11,9-24.18,1.56-12.87,14-30,23.79-42.51,3.12-1.95,5.07,1.17,13.26-16,10.53-4.29,7.8-9,26.91-26.91q6.43-3.51,16.38-14c-.78,0-1.56,0-1.56-.39,0-1.56,21.06-6.24,21.45-6.24,2.73,0,7.8.78,15.21,2.73,3.51,3.51,6.63,4.68,21.45,8.19,8.58-20.67,3.9-6.24,23.79-57.33,2-7,5.07-26.52,12.87-26.52,1.56,0,7.8,3.12,9.36,3.12a3.3,3.3,0,0,0,2.34-.78c3.12,5.46,13.26,11.7,17.55,11.7h.39C3130.53,132.59,3131.31,135.71,3108.69,182.9Zm-53.82,20.28a25,25,0,0,0-4.29-2c-1.95,0-3.9.78-6.24,2.34l-4.68,3.12c-5.85,2.34-18.72,12.48-38.61,30-5.85,5.46-6.63,9.36-11.7,12.48-33.15,33.15-48.36,62-48.36,65.91,0,1.56,2,3.51,2,3.9h2.34c29.64-12.09,11.31.39,56.16-34.32q1.76-2.34,4.68-5.85l5.85-3.9a19.63,19.63,0,0,1,3.9-5.07c7.41-3.12,9-8.58,21.84-22.62,5.85-3.51,9.75-7.8,12.87-29.25.39-1.95,4.29-11.7,4.29-12.09Z" transform="translate(-16.2 -5.44)"/>
    <path id="i3_wikipedia-letter" d="M3189.42,228.14c0,15.6-5.46,18.33-18.33,38.61-6.63,26.13-1.56,17.94-29.64,72.15-11.31,0-21.06-23-23.4-38.61-.78-4.68-6.24-3.51-6.24-14.82,0-9.75,6.63-7.8,10.14-23.4,5.07-16.77,4.29-16,22.62-34.32,1.95-1.95,3.12-4.68,3.51-8.58,7.8-5.07,12.87-7.8,15.6-7.8,1.17,0,6.63,2.34,25.74,13.26Zm41.73-80.34c-9,8.19-15.21,12.48-18.72,12.48-7,0-17.94-27.69-17.94-37.83,0-7.41,4.29-26.13,9.36-26.13,4.68,0,26.52,22.62,27.3,26.52.39,2.73,5.46,10.92,5.46,13.65C3236.61,138.05,3231.54,145.85,3231.15,147.8Z" transform="translate(-16.2 -5.44)"/>
    <path id="a_wikipedia-letter" d="M3375.84,205.13c-.39,2.73-.78,6.63-1.56,12.48-6.24,6.24-11.7,33.93-19.89,53.82-2.73,6.24-5.07,16.77-7.41,31.59l-5.07,32.37a31.52,31.52,0,0,0-.39,6.24,41.22,41.22,0,0,0,.78,9.36q-1.76-2.92-8.19-9.36c-8.19-8.19-9.36-13.26-9.36-26.13,0-11.31,1.17-18.72,2.73-23q-1.76-2.34-3.51-2.34c-4.29,0-9,7.8-34.32,29.25-2.73,8.19-9.75,12.48-36.27,26.13-5.07,5.85-10.14,9-16,9-.78,0-12.09-5.07-15.21-15.21-4.29-14.82-14.43-18.72-14.43-33.54,0-4.29,1.17-10.92,3.9-20.67,3.12-1.17,6.63-3.9,10.92-8.19,1.56-9.75,2.34-9,24.18-43.29,9-6.63,6.63-12.87,21.84-26.13,21.45-28.86,38.22-48,51.87-48,4.29,0,9.36,3.12,16,9.75,9.36,0,5.46,5.07,25.35,10.53-.39-.39,17.16,6.63,17.16,16.77C3379,197.72,3375.84,203.18,3375.84,205.13Zm-51.09.39c-1.95,0-6.24,2.73-12.09,7.8-9,5.46-19.89,17.94-50.7,53.82-3.12,4.68-25.35,36.66-25.35,43.29,0,2.34.78,3.12,2.73,3.12,5.85,0,17.16-14.82,33.93-28.08,2.73-4.68,7-7.41,27.69-28.08,0-3.9,13.26-24.57,19.89-29.64,4.68-11.7,7.41-17.55,7.8-17.55C3328.65,207.08,3327.48,205.52,3324.75,205.52Zm6.63-1.56a6,6,0,0,0,2.34,1.56,9.32,9.32,0,0,0,1.17-2.73C3334.5,202.79,3331.77,204,3331.38,204Z" transform="translate(-16.2 -5.44)"/>
    <path id="f_free-letter" d="M3706.94,67.85a3,3,0,0,0,3.12,2.34h.78c-3.12,6.24-9.36,12.09-18.33,17.55a4,4,0,0,0,1.56-3.12c0-2.34-2-5.07-6.24-8.58-7.8,3.51-11.7,7.8-11.7,12.09,0-.39-15.6,21.45-15.6,22.62,0,.78,1.17,2,1.17,2.34-5.07,5.07-5.46,5.07-10.53,10.14a2.29,2.29,0,0,1,.78,2A14.05,14.05,0,0,1,3650,133c-4.68.78-4.68.78-13.26,10.53a11,11,0,0,0,5.85,1.56c-4.68,4.68-4.29,5.46-15.6,21.84l3.9,2v2.73a70.76,70.76,0,0,0-7.8,3.9,8.66,8.66,0,0,1,.39,3.51,28.72,28.72,0,0,0-2.34,1.95,3.3,3.3,0,0,1,.78,2.34c0,3.12-4.68,8.58-9.75,14a7.79,7.79,0,0,1,.78,3.51c0,1.17-13.65,17.16-13.65,20.28,0,.39,1.17,1.56,3.51,3.12a6.41,6.41,0,0,0,4.68-3.12s2.34,1.17,2.34,1.95a2.82,2.82,0,0,1-1.56,2.34l1.56,1.17c2-.78,4.68-2,8.58-3.51,2.34-6.63,11.31-6.63,12.87-11.31-.78,0,18.72-11.31,18.72-19.11,0-.78-.39-1.17-1.17-2,11.31,10.14,10.92,10.53,10.92,19.11a29.05,29.05,0,0,1-.78,7c1.56-4.68-25.35,41.34-35.1,43.29,0-2.73.78-3.9,2-3.9-8.19-2.73-.39-12.09-8.58-12.09-1.95,0-8.19,3.12-19.11,9.36-25,14-16.38,11.7-22.23,26.13-7.8,3.9-2,18.33-15.6,30a2.34,2.34,0,0,1,.39,1.56c0,1.17-1.17,3.9-3.9,8.19,1.95.39,4.29,1.56,7.8,3.12v2c-18.33,3.12-23.4,40.56-30,70.59-7.8,4.68-13.65,13.26-17.55,25.35a5.64,5.64,0,0,1-2.73.78c-3.51,0-5.07-.78-5.07-2.73,0-4.68,8.19-38.22,8.19-48,0-23-3.12-44.85-9.36-64.74-.39-1.56-5.85-4.68-16-9.36-2-3.9-5.07-5.07-17.16-13.26.39-3.51,3.51-10.14,8.58-19.11,2,2.34,3.9,3.51,6.24,3.51,1.56,0,7.41-1.95,9.36-1.95,1.56,0,.78.78,2.34.78,2.73,0,12.87-4.68,19.11-6.63,5.07-1.56,30.42-3.9,40.95-13.26V245.3a24,24,0,0,1,.39-5.07C3569.27,227,3572,218.78,3572,214.1c7.41-2.34,7.41-15.21,10.92-30.81,1.95-1.56,10.53-7.8,10.53-12.87a50.69,50.69,0,0,0-.78-6.63s9.36-7,9.36-16.38c0-1.56-1.17-3.9-2.73-4.29,7-7,11.7-17.16,21.84-40.17,4.29-1.56,6.63-4.29,6.63-7.8a7.61,7.61,0,0,0-.39-2.73c7.8-12.09,17.94-30,30.42-54.6,1.95-1.17,5.46-3.51,10.14-6.24,6.63,4.29,10.53,6.63,12.48,6.63h1.17c0-.39.39-.39,1.17-.39h-.39c0,1.17,8.58,4.29,28.47,9ZM3544.31,280c-9,1.56-19.11,9-19.11,16.77a2.92,2.92,0,0,0,.39,2q-1.76,2.34-2.34,2.34v-1.56c.39-.39.78,16.77.78,20.67s-3.9,1.95-3.9,12.87c0,5.85,1.17,10.14,3.9,12.87,3.51-2.73,5.46-10.14,9.75-21.06v-7.41a8.27,8.27,0,0,1,3.9-7,5.54,5.54,0,0,1-.78-2.34c0-3.9,5.85-8.58,10.92-28.08ZM3558.74,337l-1.17-2.34,1.17-.39,1.17,2.73Zm46-111.15a31.88,31.88,0,0,1-3.51,3.12,6.86,6.86,0,0,0,2.34-.39h2.34A3.54,3.54,0,0,0,3604.76,225.8Zm5.46-10.53c0-2,.39-3.51,1.56-3.9.78.39,1.17,1.56,1.17,3.12A9.92,9.92,0,0,1,3610.22,215.27Zm17.94,36.66a1.43,1.43,0,0,0,.39,1.17c1.95-2.73,5.07-7,9-12.09C3631.28,246.08,3628.16,250,3628.16,251.93Z" transform="translate(-16.2 -5.44)"/>
    <path id="r_free-letter" d="M3817.7,168.86c-.39,1.56-2.34,2.34-5.85,3.12-3.12,1.17-7.8,2.34-12.87,4.29-4.29,2.34-4.29,2.34-8.19,4.68-4.29,2.73-3.9,3.51-8.19,5.46a57.39,57.39,0,0,0-17.16,9c-8.58,6.24-19.89,16.77-32.37,33.54-2.73,3.12-4.68,7-6.63,11.31-2.34,4.29-3.51,9-4.68,13.65-.39,1.17-2,3.12-3.12,7.41-1.17,3.9-2.34,9.75-3.9,17.55a84.56,84.56,0,0,1-3.12,11.7,71.31,71.31,0,0,1-3.12,9.75,10,10,0,0,0-.78,1.95c0,.78.39.78,0,1.95,0,1.56-.39,1.56-.39,3.51,0,1.56.78,1.56.78,3.12-.78,4.29-1.17,4.29-2.34,8.58a81.65,81.65,0,0,1-1.95,8.19c-.39.78-.78.39-1.17,1.17s0,2.34-.78,1.95c-2.34-.78-1.95-1.95-3.9-3.12-1.56-1.56-1.17-3.9-3.51-2.73-2.73,1.56-1.17,2.73-2.34,5.85-.78,2.73,0,3.51-1.56,5.85-.78,1.17-1.56,0-2.73.39s-1.17,1.17-2.34.78c-1.17,0-.78-.78-1.95-1.17-.78-.39-1.17,0-1.95-.78-.78-.39,0-.78,0-1.56a3,3,0,0,1-.78-1.17,42.85,42.85,0,0,0-3.51-5.46c-1.56-2.73-2-2.34-3.12-5.46-.78-1.17,0-1.56-.39-2.73-.39-1.56-1.17-1.17-1.17-2.73,0-.39.39-.39.39-1.17,0-.39,0-.39-.39-1.17,0-.39.39-.39,0-.78s-.78,0-.78-.39l-.78-2.34c-.39-1.17-.78-1.17-1.17-2.34,0-.78.78-.78,1.17-1.56a2.34,2.34,0,0,0,.39-1.56c-.39-1.17,0-2.34,0-3.51,0-1.56.39-2.73.39-3.9,2.73-10.53,4.29-19.5,6.24-27.3s3.9-14,5.07-19.5c.78-2,.39-2.34.78-4.29l1.56-4.68a.38.38,0,0,1,.39-.39v.39c.78-2.34,1.56-3.9,1.95-5.07s0-1.17.39-2q.59-2.92,1.17-8.19c.39-3.12.39-7,.78-11.31.78-4.29,1.56-8.19,1.95-11.7q.59-4.68,1.17-8.19a24.63,24.63,0,0,1,3.51-9.75,33.94,33.94,0,0,1,7-10.14c0-.39.39-.39.39-.78.39-.78-.39-.78,0-1.17,1.95-2.73,1.95-2.34,4.29-5.07,1.95-2.34,1.56-2.73,3.9-5.07a6.59,6.59,0,0,1,2.34-1.17c1.17-.78.78-1.17,2.34-1.56s1.56.78,3.51.78c1.56,0,1.95-1.17,3.51-.39,1.17.39,1.17.78,2,2,.78.78.39,1.17,1.56,1.95s2.73,1.17,4.29,2.34c1.17,1.17,2.34,2.73,3.9,4.29,2.34,2.34,4.29,4.68,6.24,5.85a8.58,8.58,0,0,0,5.07,1.56c1.17,0,3.9-1.56,7.8-3.51s9.75-4.29,16-7.8c7.41-3.51,14-6.63,19.5-8.19a54,54,0,0,1,14-1.95,16.59,16.59,0,0,1,4.29.78,14,14,0,0,1,4.29,1.56,13.76,13.76,0,0,1,4.29,3.51C3818.09,165.35,3817.7,166.91,3817.7,168.86Z" transform="translate(-16.2 -5.44)"/>
    <path id="e1_free-letter" d="M3863.72,250c-19.89,0-32.37-2.34-38.22-7-9.75,16-14.82,28.47-14.82,37,0,2.34,2,5.85,5.46,10.92,7,9.75,7.41,9.75,21.45,11.31,1.95,1.17,6.24,5.85,17.55,5.85,8.19,0,20.67-3.51,36.66-10.92,17.55-8.19,32-20.67,34.32-20.67a5.64,5.64,0,0,1,2.73.78,56.16,56.16,0,0,1-3.51,13.26c-2,1.95-33.54,44.07-79.56,44.07-17.16,0-39.78-23.79-51.09-37.83-12.87-16.38-16.38-43.29-16.38-53.43,1.56-3.12,3.12-9,5.07-17.16,0-4.29,4.68-.78,8.19-15.6,7-4.29,1.95-8.58,14.43-18.72l7-5.85A231.41,231.41,0,0,1,3832.13,165l12.09-6.63a12.15,12.15,0,0,0,7.41-9h3.12c1.56,0,6.63,5.46,8.58,5.85,17.55,2.73,26.91,4.29,27.3,4.29,17.16,4.29,41.34,23.4,41.34,37.83C3932,244.91,3869.57,250,3863.72,250ZM3875,186.8l-11.31,7c-19.89,11.31-25.74,24.57-37.83,40.56q7.61,2.34,8.19,2.34c2.73,0,9-3.12,19.5-9.75,25.74-16.38,25.74-26.52,28.47-35.49Q3877.37,186.8,3875,186.8Z" transform="translate(-16.2 -5.44)"/>
    <path id="e2_free-letter" d="M4028.69,250c-19.89,0-32.37-2.34-38.22-7-9.75,16-14.82,28.47-14.82,37,0,2.34,1.95,5.85,5.46,10.92,7,9.75,7.41,9.75,21.45,11.31,2,1.17,6.24,5.85,17.55,5.85,8.19,0,20.67-3.51,36.66-10.92,17.55-8.19,32-20.67,34.32-20.67a5.64,5.64,0,0,1,2.73.78,56.16,56.16,0,0,1-3.51,13.26c-1.95,1.95-33.54,44.07-79.56,44.07-17.16,0-39.78-23.79-51.09-37.83-12.87-16.38-16.38-43.29-16.38-53.43,1.56-3.12,3.12-9,5.07-17.16,0-4.29,4.68-.78,8.19-15.6,7-4.29,1.95-8.58,14.43-18.72l7-5.85A231.41,231.41,0,0,1,3997.1,165l12.09-6.63a12.15,12.15,0,0,0,7.41-9h3.12c1.56,0,6.63,5.46,8.58,5.85,17.55,2.73,26.91,4.29,27.3,4.29,17.16,4.29,41.34,23.4,41.34,37.83C4096.94,244.91,4034.54,250,4028.69,250ZM4040,186.8l-11.31,7c-19.89,11.31-25.74,24.57-37.83,40.56q7.6,2.34,8.19,2.34c2.73,0,9-3.12,19.5-9.75,25.74-16.38,25.74-26.52,28.47-35.49Q4042.34,186.8,4040,186.8Z" transform="translate(-16.2 -5.44)"/>
  </g>
  <g id="helpuskeepwikipediafree-masks">
    <mask id="h_help-mask">
      <line id="h_help-mask-lineshapeleft" x1="92.27" y1="86.98" x2="34.55" y2="331.9" fill="none" stroke="#231f20" stroke-width="71"/>
      <line id="h_help-mask-lineshaperight" x1="186.06" y1="71.59" x2="138.06" y2="327.15" fill="none" stroke="#231f20" stroke-width="71"/>
      <path id="h_help-mask-lineshapemiddle" d="M80.35,211.76l102.13-11.48A77.74,77.74,0,0,1,197,200l26.57,2" transform="translate(-16.2 -5.44)" fill="none" stroke="#231f20" stroke-width="71"/>
    </mask>
    <path id="e_help-mask" d="M266.64,238.45s30.2,11.65,70.64-1.73,20.29-46.8,20.29-46.8-.59-28-34.12-28.08-14.28-13.73-14.28-13.73S230.12,208.54,236.35,250s24.5,64.21,37.48,72.53,36.83,9,45.82,4.68,39.75-30.58,52.19-45.1" transform="translate(-16.2 -5.44)" fill="none" stroke="#231f20" stroke-width="71"/>
    <path id="l_help-mask" d="M515.63,311.21s-3-10.81-39.88-3.12-25-.16-58.23-13,25-186.92,86.18-217.2,40.18,6.41,39.6,26.2S512.55,168.29,475.17,210c-19.84,22.14-44.23,37-64.6,48.24a49.68,49.68,0,0,0-17.66,16.3c-7,10.71-21.48,26.92-46.09,29.32" transform="translate(-16.2 -5.44)" fill="none" stroke="#231f20" stroke-width="71"/>
    <mask id="p_help-mask">
      <path id="p_help-mask-semicircleshape" d="M508.2,222.73s12.32-51.06,97.52-47,52,61,52,61-2.31,10.25-11.61,24.35c-3.09,4.7-1.44,26-8.41,25.77-6.74-.23-16.8.84-25.57,9.27-15.6,15-41.32,25.08-73.91,33.7" transform="translate(-16.2 -5.44)" fill="none" stroke="#231f20" stroke-width="71"/>
      <line id="p_help-mask-lineshape" x1="576.26" y1="150.55" x2="481.1" y2="455.53" fill="none" stroke="#231f20" stroke-width="71"/>
    </mask>
    <path id="u_us-mask" d="M852.19,155.21S796,288.88,815,319.24,945,218.39,927.46,207.47s-58.5,108,26.13,72.15" transform="translate(-16.2 -5.44)" fill="none" stroke="#231f20" stroke-width="71"/>
    <path id="s_us-mask" d="M907.18,329.15s170.69-126.81,174.45-153.75-17.32-46.58-28.29-35.61-28,107.19-19.64,149-13.28,50.06-25.41,45.82-39.53-11.83-50.89-51.39" transform="translate(-16.2 -5.44)" fill="none" stroke="#231f20" stroke-width="71"/>
    <mask id="k_keep-mask">
      <line id="k_keep-mask-lineshape" x1="1293.06" y1="78.4" x2="1196.36" y2="345.64" fill="none" stroke="#231f20" stroke-width="71"/>
      <path id="k_keep-mask-semitriangleshape" d="M1329.55,191.87l-99.45,38.61s10.82,39.16,147.81,111.15" transform="translate(-16.2 -5.44)" fill="none" stroke="#231f20" stroke-width="71"/>
    </mask>
    <path id="e1_keep-mask" d="M1402.53,239.5s35.7,13.83,74.93-2.78c26.87-11.38,21.8-48.58,30.76-49.92,0,0-11.06-24.93-44.59-25s-15.46-12.48-15.46-12.48S1370.3,208.54,1376.52,250,1401,314.2,1414,322.52s36.83,9,45.82,4.68,36.28-34.49,52.19-45.1c11.93-8,17.59-10.7,17.59-10.7" transform="translate(-16.2 -5.44)" fill="none" stroke="#231f20" stroke-width="71"/>
    <path id="e2_keep-mask" d="M1577.19,239.72s25.06,10.38,65.51-3,21.64-38.66,21.64-38.66-1.94-36.19-35.47-36.22-16.74-12.48-16.74-12.48-76.59,59.18-70.37,100.63,24.51,64.21,37.49,72.53,36.83,9,45.82,4.68,42.63-35.4,55.08-49.92" transform="translate(-16.2 -5.44)" fill="none" stroke="#231f20" stroke-width="71"/>
    <mask id="p_keep-mask">
      <path id="p_keep-mask-semicircleshape" d="M1687.59,216.84s12.89-45.17,98.09-41.09,52,61,52,61-2.32,10.25-11.61,24.35c-3.1,4.7-1.45,26-8.42,25.77-6.73-.23-16.8.84-25.57,9.27-15.6,15-41.31,25.08-73.91,33.7" transform="translate(-16.2 -5.44)" fill="none" stroke="#231f20" stroke-width="71"/>
      <line id="p_keep-mask-lineshape" x1="1756.22" y1="150.55" x2="1661.06" y2="455.53" fill="none" stroke="#231f20" stroke-width="71"/>
    </mask>
    <path id="w_wikipedia-mask" d="M2019.83,106.07s-36.14,198,6.05,215.08c32.93,13.35,11.6-154.67,85.08-200.64a7.86,7.86,0,0,1,12,5.4c2.42,16.18-8.43,48.22-7.42,86.65.85,32.18,14.5,69,8,103C2110.47,384,2246.22,67.77,2251.49,69" transform="translate(-16.2 -5.44)" fill="none" stroke="#231f20" stroke-width="71"/>
    <mask id="i1_wikipedia-mask">
      <path id="i1_wikipedia-mask-lineshape" d="M2273.64,207.32s2.49,11.64-3.37,16.2c-1.4,1.09-10.13,2.24-11.31,3.78-2.63,3.4-1.73,11.06-3.38,16.41-1.37,4.45,7.35,12.12,5.27,17.36-2.51,6.31-30.91,12.27-32.28,20.35-.38,2.2,4.25,13.41,4,15.75-.29,2.61,11,13,10.87,15.75-.67,14.43-2.26,6.68,3,26" transform="translate(-16.2 -5.44)" fill="none" stroke="#231f20" stroke-width="71"/>
      <path id="i1_wikipedia-mask-dotshape" d="M2308.82,96.32s39.34,36.67,27,41.4-3.15,19.56-18.3,17.67c-8.91-1.12-14.77-16.08-15.41-31.16-.45-10.54,3.21-22.76,3.53-23.41,3.34-6.84,6.13-2.25,6.13-2.25" transform="translate(-16.2 -5.44)" fill="none" stroke="#231f20" stroke-width="71"/>
    </mask>
    <mask id="k_wikipedia-mask">
      <line id="k_wikipedia-mask-lineshape" x1="2410.43" y1="78.4" x2="2314.81" y2="342.66" fill="none" stroke="#231f20" stroke-width="71"/>
      <path id="k_wikipedia-mask-semitriangleshape" d="M2446.91,191.87l-99.45,38.61s5.76,37.21,142.74,109.2" transform="translate(-16.2 -5.44)" fill="none" stroke="#231f20" stroke-width="71"/>
    </mask>
    <mask id="i2_wikipedia-mask">
      <path id="i2_wikipedia-mask-lineshape" d="M2538.63,207.32s.55,11.64-5.31,16.2c-1.4,1.09-10.13,2.24-11.31,3.78-2.63,3.4-1.72,11.06-3.38,16.41-1.37,4.45,7.35,12.12,5.27,17.36-2.51,6.31-30.9,12.27-32.28,20.35-.37,2.2,4.25,13.41,4,15.75-.29,2.61,11,13,10.87,15.75-.66,14.43-2.26,6.68,3,26" transform="translate(-16.2 -5.44)" fill="none" stroke="#231f20" stroke-width="71"/>
      <path id="i2_wikipedia-mask-dotshape" d="M2571.87,96.32s39.34,36.67,27,41.4-3.16,19.56-18.31,17.67c-8.91-1.12-14.77-16.08-15.41-31.16-.45-10.54,3.21-22.76,3.53-23.41,3.34-6.84,6.13-2.25,6.13-2.25" transform="translate(-16.2 -5.44)" fill="none" stroke="#231f20" stroke-width="71"/>
    </mask>
    <mask id="p_wikipedia-mask">
      <path id="p_wikipedia-mask-semicircleshape" d="M2578.22,225.11s9.82-53.44,95-49.36,52,61,52,61-2.32,10.25-11.61,24.35c-3.1,4.7-1.45,26-8.42,25.77-6.73-.23-16.8.84-25.57,9.27-15.6,15-41.31,25.08-73.9,33.7" transform="translate(-16.2 -5.44)" fill="none" stroke="#231f20" stroke-width="71"/>
      <line id="p_wikipedia-mask-lineshape" x1="2643.78" y1="150.55" x2="2548.62" y2="455.53" fill="none" stroke="#231f20" stroke-width="71"/>
    </mask>
    <path id="e_wikipedia-mask" d="M2790,242s34.06,8.11,74.5-5.27,22.19-40.87,22.19-40.87-2.49-34-36-34-14.73-12.48-14.73-12.48-78.6,59.18-72.38,100.63,24.51,64.21,37.49,72.53,36.83,9,45.81,4.68,39.75-30.58,52.2-45.1" transform="translate(-16.2 -5.44)" fill="none" stroke="#231f20" stroke-width="71"/>
    <path id="d_wikipedia-mask" d="M3112.2,93.48s-21.47,111.72-39,107.75-37.91-31.69-54.88-8.49S2922.49,269,2930,301.39s18.11,40.57,65.08,6.7S3079.42,158.23,3076,186.8s-42.73,68.52-22.93,103c9.92,17.29,4.75,10.43,8,24.82.57,2.47,9.83.61,20.51-1.81,4.21-.95,8.33-4.92,14.87-6.5.71-.17,3.48-3.38,4.56-2.65,1.24.84.94,7.14,1.82,7" transform="translate(-16.2 -5.44)" fill="none" stroke="#231f20" stroke-width="71"/>
    <mask id="i3_wikipedia-mask">
      <path id="i3_wikipedia-mask-lineshape" d="M3171.61,202.79s.55,16.17-5.31,20.73c-1.4,1.09-10.13,2.24-11.31,3.78-2.63,3.4-1.73,11.06-3.38,16.41-1.37,4.45,7.35,12.12,5.27,17.36-2.51,6.31-30.91,12.27-32.28,20.35-.38,2.2,4.25,13.41,4,15.75-.29,2.61,11,13,10.87,15.75-.67,14.43-2.26,6.68,3,26" transform="translate(-16.2 -5.44)" fill="none" stroke="#231f20" stroke-width="71"/>
      <path id="i3_wikipedia-mask-dotshape" d="M3204.85,96.32s39.34,36.67,27,41.4-3.15,19.56-18.3,17.67c-8.91-1.12-14.77-16.08-15.41-31.16-.45-10.54,3.21-22.76,3.53-23.41,3.34-6.84,6.13-2.25,6.13-2.25" transform="translate(-16.2 -5.44)" fill="none" stroke="#231f20" stroke-width="71"/>
    </mask>
    <path id="a_wikipedia-mask" d="M3342.3,351s1.2-146.25,26.65-160.79c0,0-43.63-2.42-44.24-12.12s-6.66-13.33-6.66-13.33-74.42,115.4-81.44,115.26-21.77,5.92-21.06,14.41,9.19,20.6,8.58,27.87,2.7,23,10.14,23.63,43.83-17.58,42-24.24c-2.95-10.57,50.2-60.44,82.57-96.23,3.52-3.9,9.8-5.52,12.74-9,1.63-2,2.11-9.68,2.66-16.22.09-1.12,2.58-2.63,2.68-3.64.32-3.07-1.68-5.08-1-5.94" transform="translate(-16.2 -5.44)" fill="none" stroke="#231f20" stroke-width="71"/>
    <mask id="f_free-mask">
      <path id="f_free-mask-fshape" d="M3703.33,88.17S3693.4,40.94,3668,40.94s-153.68,380.25-153.68,380.25,6.63-59.86,2.75-105.57-47.5-40.48-47.5-40.48S3669,231.71,3656.64,198.2c0,0-34.88,24.89-32.85,41.45s1.09,18,4.37,16.37,13.45-10.55,14.91-19.09-5.55-19.83-5.55-19.83-20.62,15.17-25.93,11.82-4.29-5.74-4.29-5.74-16.59.5-12.49,4.18,23.43,11.25,39.51,3.7" transform="translate(-16.2 -5.44)" fill="none" stroke="#231f20" stroke-width="71"/>
      <path id="f_free-mask-dottop" d="M3611.59,212.12s1.32.47.92,1.64-2,2-1.87.93-.14-3.33.67-3.06.49,1.65.3,1.76" transform="translate(-16.2 -5.44)" fill="none" stroke="#231f20" stroke-width="71"/>
      <path id="f_free-mask-dotbottom" d="M3557.89,334.51s1.58-.09,1.52,1.26.16,1.66-.46,1.38-2.08-2.44-1.06-2.23,1.08.43,1,.87-1.39.21-.72-.2" transform="translate(-16.2 -5.44)" fill="none" stroke="#231f20" stroke-width="71"/>
    </mask>
    <path id="r_free-mask" d="M3720.59,161.84s-57,104.66-36.89,148.59c1,2.28.36,20.87,1.84,22.8,2.16,2.81,6.6-16.07,7.95-14.92,2.78,2.39,7.74,8.42,7.94,6.2.15-1.53-4.07-9.87-4.28-14.35-1.35-29.4-8.18-97.63,51-123.36,37-16.08,62.63-20.65,69.17-23" transform="translate(-16.2 -5.44)" fill="none" stroke="#231f20" stroke-width="71"/>
    <path id="e1_free-mask" d="M3817.31,241s33.3,9.13,73.74-4.25,20.5-43.5,20.5-43.5-.8-31.35-34.33-31.38-12.82-12.48-12.82-12.48-80.51,59.18-74.28,100.63,24.5,64.21,37.48,72.53,36.83,9,45.82,4.68,51.38-36.05,63.82-50.57" transform="translate(-16.2 -5.44)" fill="none" stroke="#231f20" stroke-width="71"/>
    <path id="e2_free-mask" d="M3985.16,239.59s29.59,10.51,70-2.87,20.73-42.67,20.73-42.67-1-32.18-34.56-32.21-9.07-14.92-9.07-14.92-84.26,61.62-78,103.07,24.5,64.21,37.48,72.53,36.83,9,45.82,4.68,46.93-36.05,59.38-50.57" transform="translate(-16.2 -5.44)" fill="none" stroke="#231f20" stroke-width="71"/>
  </g>
</svg>
