<svg xmlns="http://www.w3.org/2000/svg" width="65.913" height="41.694" viewBox="0 0 65.913 41.694"><path d="M36.414,0H47.491l.144.12v1.2c0,.335-.191.478-.55.478-1.794.1-2.153.263-2.8,1.2-.359.5-1.053,1.6-1.794,2.847h0L36.222,17.561a2.763,2.763,0,0,0-.167.359l7.656,15.671.455.12L56.223,5.1c.431-1.148.359-1.962-.191-2.44a3.062,3.062,0,0,0-2.321-.813l-1.124-.048a.7.7,0,0,1-.407-.144.448.448,0,0,1-.191-.335V.12L52.156,0H65.769l.144.12v1.2c0,.311-.191.478-.55.478a6.875,6.875,0,0,0-3.972,1.148,6.691,6.691,0,0,0-2.01,2.895S48.3,31.222,44.5,39.667c-1.459,2.775-2.871,2.512-4.139-.072-1.579-3.23-4.833-10.383-7.249-15.671-2.56,5.287-6.077,12.465-7.823,15.695-1.7,2.943-3.086,2.56-4.187.072-3.828-9.068-11.747-25.049-15.479-34a9.726,9.726,0,0,0-1.7-3.134A5.577,5.577,0,0,0,.861,1.842Q0,1.735,0,1.412H0V.167L.144.048c2.153-.024,11.412,0,14.092,0h.718l.144.12v1.2c0,.335-.215.478-.622.478h0l-1.555.048c-1.316.048-1.986.455-1.986,1.2a4.912,4.912,0,0,0,.455,1.651c2.967,7.225,13.207,28.829,13.207,28.829h0l.383.1,6.6-13.183c-.813-1.794-1.316-2.919-1.316-2.919L25.719,8.637s-.885-1.794-1.172-2.369c-2.01-3.972-1.962-4.163-3.972-4.45-.574-.072-.861-.144-.861-.407V.144l.167-.12H31.629l.311.1V1.364c0,.287-.215.431-.622.431l-.861.12c-2.153.167-1.794,1.053-.359,3.9l4.354,8.9L39.261,5.1c.742-1.627.67-2.129.383-2.512l-.072-.1a3.278,3.278,0,0,0-2.225-.646h0l-.55-.048a.587.587,0,0,1-.383-.144.422.422,0,0,1-.191-.359h0V.1Z"/></svg>