<?xml version="1.0" standalone="no"?>
<!DOCTYPE svg PUBLIC "-//W3C//DTD SVG 20010904//EN"
 "http://www.w3.org/TR/2001/REC-SVG-20010904/DTD/svg10.dtd">
<svg version="1.0" xmlns="http://www.w3.org/2000/svg"
 width="700.000000pt" height="700.000000pt" viewBox="0 0 700.000000 700.000000"
 preserveAspectRatio="xMidYMid meet">
<metadata>
Created by potrace 1.11, written by Peter Selinger 2001-2013
</metadata>
<g transform="translate(0.000000,700.000000) scale(0.100000,-0.100000)"
fill="#000000" stroke="none">
<path d="M24 5697 c-16 -9 -20 -132 -6 -155 12 -18 57 -28 135 -31 138 -5 256
-50 305 -117 44 -60 106 -175 133 -249 12 -33 34 -88 50 -123 16 -35 29 -65
29 -67 0 -8 217 -494 310 -695 32 -69 85 -183 118 -255 33 -71 79 -170 102
-220 23 -49 50 -109 61 -132 10 -23 48 -103 84 -178 36 -75 65 -138 65 -140 0
-2 29 -63 64 -137 35 -73 77 -162 94 -198 342 -737 516 -1117 612 -1340 109
-254 155 -326 226 -356 83 -35 181 37 281 206 42 71 611 1210 759 1517 37 79
71 140 75 135 5 -6 65 -135 289 -627 29 -63 72 -155 276 -597 165 -357 226
-480 268 -536 83 -113 171 -132 252 -54 49 46 99 118 126 180 11 26 38 84 59
130 22 46 39 85 39 87 0 4 23 56 81 183 16 35 29 65 29 67 0 3 18 43 40 90 22
47 40 87 40 90 0 2 18 43 40 90 22 47 40 88 40 90 0 2 13 32 29 67 16 35 101
228 189 429 88 201 172 390 186 421 14 31 26 59 26 62 0 3 15 38 34 78 19 40
58 127 86 193 54 125 82 189 105 240 7 17 29 66 48 110 52 121 306 704 329
755 12 25 61 137 110 250 110 250 134 295 211 377 97 104 250 167 433 178 42
3 83 10 91 16 10 9 13 33 11 93 l-3 81 -728 1 c-821 2 -744 10 -741 -81 1 -27
2 -58 3 -67 2 -29 39 -40 150 -45 58 -2 122 -9 143 -14 50 -13 128 -67 155
-108 37 -54 30 -152 -18 -256 -10 -22 -30 -69 -44 -105 -15 -36 -33 -78 -40
-95 -8 -16 -30 -70 -51 -120 -20 -49 -44 -108 -54 -130 -9 -22 -23 -53 -30
-70 -16 -40 -580 -1377 -682 -1620 -44 -104 -112 -264 -150 -355 -38 -91 -73
-174 -78 -185 -5 -11 -36 -85 -70 -165 -34 -79 -63 -146 -65 -148 -2 -2 -13
-1 -25 3 -22 7 -48 59 -392 765 -49 101 -148 304 -220 450 -72 146 -150 307
-175 359 -51 108 -55 80 30 236 23 44 71 134 106 200 35 66 71 134 81 150 10
17 46 84 80 150 35 66 66 125 70 130 4 6 33 60 65 120 32 61 68 128 80 150 12
22 46 85 75 140 95 180 240 406 293 456 35 34 105 56 197 63 73 5 100 13 101
30 1 6 2 44 3 84 1 57 -2 73 -14 76 -22 7 -1152 6 -1172 0 -15 -4 -18 -17 -18
-78 0 -95 12 -107 112 -112 96 -6 153 -20 206 -50 68 -40 78 -94 38 -205 -13
-36 -141 -301 -285 -588 l-261 -522 -146 298 c-453 925 -439 894 -435 967 2
37 6 43 43 62 32 17 206 47 220 38 4 -3 18 5 31 18 20 20 23 32 21 91 0 37 -4
71 -8 75 -8 7 -1251 11 -1273 4 -9 -3 -13 -29 -13 -83 0 -89 2 -91 91 -104
134 -18 194 -55 253 -153 18 -32 151 -289 294 -572 143 -283 313 -621 379
-750 110 -218 145 -290 211 -444 l26 -59 -349 -697 c-320 -640 -350 -696 -371
-692 -16 3 -29 19 -45 56 -12 28 -44 98 -71 156 -28 58 -97 206 -155 330 -58
124 -122 261 -143 305 -21 44 -50 107 -65 140 -16 33 -54 115 -87 183 -32 68
-58 125 -58 127 0 2 -25 56 -56 121 -31 66 -103 223 -161 349 -58 127 -115
253 -128 280 -179 384 -446 993 -475 1087 -21 66 -21 138 0 164 33 39 96 56
239 61 179 7 181 8 181 113 0 76 -1 80 -22 81 -130 6 -1553 2 -1564 -4z"/>
</g>
</svg>
